<svg xmlns="http://www.w3.org/2000/svg" viewBox="0 0 240 300" role="img" aria-labelledby="title">
  <title id="title">DataMuru Vel Eye mark</title>
  <defs>
    <linearGradient id="teal" x1="38" y1="272" x2="190" y2="48" gradientUnits="userSpaceOnUse">
      <stop stop-color="#0A7C7F"/>
      <stop offset="1" stop-color="#087276"/>
    </linearGradient>
    <linearGradient id="cobalt" x1="94" y1="218" x2="146" y2="88" gradientUnits="userSpaceOnUse">
      <stop stop-color="#0D5F8A"/>
      <stop offset="1" stop-color="#14539A"/>
    </linearGradient>
  </defs>
  <g transform="scale(1 .88)">
    <path fill="url(#teal)" fill-rule="evenodd" d="M120 8C82 43 37 88 25 139C12 193 37 247 86 286L78 240C52 215 42 181 49 151C57 116 87 78 120 45C153 78 183 116 191 151C198 181 188 215 162 240L154 286C203 247 228 193 215 139C203 88 158 43 120 8ZM120 69C94 97 72 125 67 151C62 177 72 201 94 220L101 183C91 173 87 162 89 151C92 133 106 113 120 97C134 113 148 133 151 151C153 162 149 173 139 183L146 220C168 201 178 177 173 151C168 125 146 97 120 69Z"/>
    <path fill="url(#cobalt)" d="M120 91C93 124 81 151 85 178C89 207 104 226 120 243C136 226 151 207 155 178C159 151 147 124 120 91Z"/>
    <circle cx="120" cy="174" r="15" fill="#C48A1F"/>
    <path fill="#FFFFFF" d="M105 181C109 187 113 191 116 194L104 288L88 250L98 205Z"/>
    <path fill="#FFFFFF" d="M135 181C131 187 127 191 124 194L136 288L152 250L142 205Z"/>
    <path fill="url(#teal)" d="M120 188L132 326L120 301L108 326Z"/>
  </g>
</svg>
